<svg id="visual" viewBox="0 0 900 600" width="900" height="600" xmlns="http://www.w3.org/2000/svg" xmlns:xlink="http://www.w3.org/1999/xlink" version="1.1"><rect x="0" y="0" width="900" height="600" fill="#ffffff"></rect><path d="M0 489L16.7 492.3C33.3 495.7 66.7 502.3 100 501.2C133.3 500 166.7 491 200 491.3C233.3 491.7 266.7 501.3 300 511.2C333.3 521 366.7 531 400 535C433.3 539 466.7 537 500 531.3C533.3 525.7 566.7 516.3 600 515.7C633.3 515 666.7 523 700 524.2C733.3 525.3 766.7 519.7 800 510.2C833.3 500.7 866.7 487.3 883.3 480.7L900 474L900 601L883.3 601C866.7 601 833.3 601 800 601C766.7 601 733.3 601 700 601C666.7 601 633.3 601 600 601C566.7 601 533.3 601 500 601C466.7 601 433.3 601 400 601C366.7 601 333.3 601 300 601C266.7 601 233.3 601 200 601C166.7 601 133.3 601 100 601C66.7 601 33.3 601 16.7 601L0 601Z" fill="#F78CA2" stroke-linecap="round" stroke-linejoin="miter"></path></svg>