<svg id="visual" viewBox="0 0 900 600" width="900" height="600" xmlns="http://www.w3.org/2000/svg" xmlns:xlink="http://www.w3.org/1999/xlink" version="1.1"><rect x="0" y="0" width="900" height="600" fill="#ffffff"></rect><path d="M0 95L16.7 92.7C33.3 90.3 66.7 85.7 100 85.7C133.3 85.7 166.7 90.3 200 93C233.3 95.7 266.7 96.3 300 97.2C333.3 98 366.7 99 400 91.8C433.3 84.7 466.7 69.3 500 63C533.3 56.7 566.7 59.3 600 69C633.3 78.7 666.7 95.3 700 98C733.3 100.7 766.7 89.3 800 87.8C833.3 86.3 866.7 94.7 883.3 98.8L900 103L900 0L883.3 0C866.7 0 833.3 0 800 0C766.7 0 733.3 0 700 0C666.7 0 633.3 0 600 0C566.7 0 533.3 0 500 0C466.7 0 433.3 0 400 0C366.7 0 333.3 0 300 0C266.7 0 233.3 0 200 0C166.7 0 133.3 0 100 0C66.7 0 33.3 0 16.7 0L0 0Z" fill="#F78CA2" stroke-linecap="round" stroke-linejoin="miter"></path></svg>